<?xml version="1.0" encoding="UTF-8"?>
<svg id="Capa_2" data-name="Capa 2" xmlns="http://www.w3.org/2000/svg" viewBox="0 0 106.5 92.25">
  <defs>
    <style>
      .cls-1 {
        fill: #182217;
      }
    </style>
  </defs>
  <g id="Capa_1-2" data-name="Capa 1">
    <g>
      <g>
        <path class="cls-1" d="M102.99,90.54c-1.72-4.91-3.1-10.15-3.47-15.36-.78-8.7,.1-18.67,6.76-25.06,0,0,.22,.17,.22,.17-1.29,3.26-2.25,6.49-3.02,9.77-1.45,5.71-2.5,11.66-2.07,17.61,.14,2.4,.46,5.32,.83,7.7,.31,1.7,.69,3.39,1.02,5.1l-.27,.08h0Z"/>
        <path class="cls-1" d="M66.79,91.99c5.72-2.48,11.82-3.96,18.02-4.66,6.2-.92,12.92-.33,18.36,3.04,0,0-.09,.27-.09,.27-5.44-.39-10.51-.7-15.86-1.04,0,0-2.27,0-2.27,0-6.08,.14-12.18,1.05-18.07,2.66,0,0-.1-.26-.1-.26h0Z"/>
      </g>
      <path class="cls-1" d="M67.63,73.92c-3.8,7.77-11.67,10.97-19.78,7.74,0,0-2.38-.96-2.38-.96-7.41-2.88-14.91-8.82-23.18-5.87-5.62,1.86-11.06,4.92-17.12,5.37-1.4,.1-3.3-.14-4.34-1.36-.88-.9-1.21-2.53-.19-3.39,1.21-1.07,3.18-1.18,4.3,.08,.64,.91,.45,1.93,.2,2.73l-.28-.06c.07-.82-.05-1.68-.53-2.12-.72-.59-2.04-.3-2.61,.39-.15,.22-.11,.34-.07,.46,1.95,3.94,16.02-4.28,19.91-4.81,3.51-.88,7.3-.84,10.72,.4,5.66,2.03,10.61,5.46,16.15,7.73,7.52,3.4,14.92,.73,18.95-6.45,0,0,.26,.12,.26,.12h0Z"/>
      <path class="cls-1" d="M87.96,59.8c5.65-2.63,8.85-7.57,5.82-13.51-1.27-2.6-2.7-5.07-4.42-7.36-1.95-2.27-3.55-5.59-3.1-8.78,.7-3.16,3.12-5.42,5.01-7.83,5.62-6.31,11.39-13.3,10.52-22.25,0,0,.28-.06,.28-.06,3.28,9-2.53,18.07-8.71,24.19-1.81,2.07-4.36,4.01-4.92,6.75-.17,2.67,.8,4.73,2.44,6.93,1.67,2.46,3.04,5.13,4.2,7.83,.86,2.15,1.31,4.5,.77,6.79-1,3.72-4.36,6.33-7.78,7.58,0,0-.1-.27-.1-.27h0Z"/>
      <path class="cls-1" d="M63.36,68.29c-6.3,.87-17.27,.6-19.19-7.01,0,0,.23-.16,.23-.16,3.2,1.78,5.66,3.17,8.85,4.7,3.2,1.19,6.65,1.9,10.09,2.18,0,0,.02,.28,.02,.28h0Z"/>
      <path class="cls-1" d="M81.58,50.06c-.83-2.74-1.74-5.47-2.72-8.14-1.35-2.62-1.9-4.98-2.69-7.86,0,0,.18-.22,.18-.22,.39,.1,.81,.26,1.16,.49,2.36,1.52,3.24,4.37,3.54,6.99,.54,2.88,.8,5.79,.81,8.71,0,0-.28,.04-.28,.04h0Z"/>
      <path class="cls-1" d="M70.14,57.4c-3-2.15-5.95-4.36-8.85-6.64-3.11-2.15-5.86-4.56-7.52-8.12,0,0,.19-.21,.19-.21,3.71,1.29,6.38,3.77,8.85,6.64,2.57,2.64,5.07,5.35,7.52,8.12,0,0-.19,.21-.19,.21h0Z"/>
      <path class="cls-1" d="M98.25,32.64c-1.51-4.77,4.62-6.97,6.79-2.6,2.2,5.31-5.12,8.37-6.79,2.6h0Zm.26-.1c.62,1.38,2.36,1.15,3.23,.45,.71-.47,1.4-1.19,1.17-2.14-.79-2.91-5.66-1.21-4.4,1.69h0Z"/>
      <path class="cls-1" d="M25.34,83.8c-1.51-4.77,4.62-6.97,6.79-2.6,2.2,5.31-5.12,8.37-6.79,2.6h0Zm.26-.1c1.03,2.25,4.85,.28,4.4-1.69-.79-2.91-5.66-1.21-4.4,1.69h0Z"/>
      <text/>
    </g>
  </g>
</svg>