<?xml version="1.0" encoding="UTF-8"?>
<svg id="Capa_2" data-name="Capa 2" xmlns="http://www.w3.org/2000/svg" viewBox="0 0 17.81 334.19">
  <defs>
    <style>
      .cls-1 {
        fill: #294023;
      }
    </style>
  </defs>
  <g id="Capa_1-2" data-name="Capa 1">
    <g>
      <g>
        <path class="cls-1" d="M.24,0C5.19,1.83,10.03,5.02,12.79,9.78c4.54,8.64,.35,17.98-8.43,21.61-.87,.32-1.72,.65-2.65,.85l-.35-.45c2.52-4.63,5.04-8.09,7.36-12.33C12.92,12.21,5.92,4.58,0,.51c0,0,.24-.51,.24-.51h0Z"/>
        <path class="cls-1" d="M.24,31.08c4.95,1.83,9.78,5.02,12.54,9.78,4.54,8.64,.35,17.98-8.43,21.61-.87,.32-1.72,.65-2.65,.85l-.35-.45c2.52-4.63,5.04-8.09,7.36-12.33C12.92,43.3,5.92,35.67,0,31.6c0,0,.24-.51,.24-.51H.24Z"/>
        <path class="cls-1" d="M.24,63.44c4.95,1.83,9.78,5.02,12.54,9.78,4.54,8.64,.35,17.98-8.43,21.61-.87,.32-1.72,.65-2.65,.85l-.35-.45c2.52-4.63,5.04-8.09,7.36-12.33C12.92,75.65,5.92,68.02,0,63.95c0,0,.24-.51,.24-.51H.24Z"/>
        <path class="cls-1" d="M1.51,90.08c4.95,1.83,9.78,5.02,12.54,9.78,4.54,8.64,.35,17.98-8.43,21.61-.87,.32-1.72,.65-2.65,.85l-.35-.45c2.52-4.63,5.04-8.09,7.36-12.33,4.19-7.24-2.81-14.87-8.73-18.94,0,0,.24-.51,.24-.51h0Z"/>
      </g>
      <g>
        <path class="cls-1" d="M1.51,118.63c4.95,1.83,9.78,5.02,12.54,9.78,4.54,8.64,.35,17.98-8.43,21.61-.87,.32-1.72,.65-2.65,.85l-.35-.45c2.52-4.63,5.04-8.09,7.36-12.33,4.19-7.24-2.81-14.87-8.73-18.94,0,0,.24-.51,.24-.51h0Z"/>
        <path class="cls-1" d="M1.51,149.71c4.95,1.83,9.78,5.02,12.54,9.78,4.54,8.64,.35,17.98-8.43,21.61-.87,.32-1.72,.65-2.65,.85l-.35-.45c2.52-4.63,5.04-8.09,7.36-12.33,4.19-7.24-2.81-14.87-8.73-18.94,0,0,.24-.51,.24-.51h0Z"/>
        <path class="cls-1" d="M1.51,182.06c4.95,1.83,9.78,5.02,12.54,9.78,4.54,8.64,.35,17.98-8.43,21.61-.87,.32-1.72,.65-2.65,.85l-.35-.45c2.52-4.63,5.04-8.09,7.36-12.33,4.19-7.24-2.81-14.87-8.73-18.94,0,0,.24-.51,.24-.51h0Z"/>
        <path class="cls-1" d="M2.78,208.7c4.95,1.83,9.78,5.02,12.54,9.78,4.54,8.64,.35,17.98-8.43,21.61-.87,.32-1.72,.65-2.65,.85l-.35-.45c2.52-4.63,5.04-8.09,7.36-12.33,4.19-7.24-2.81-14.87-8.73-18.94,0,0,.24-.51,.24-.51h0Z"/>
      </g>
      <g>
        <path class="cls-1" d="M3.42,238.52c4.95,1.83,9.78,5.02,12.54,9.78,4.54,8.64,.35,17.98-8.43,21.61-.87,.32-1.72,.65-2.65,.85l-.35-.45c2.52-4.63,5.04-8.09,7.36-12.33,4.19-7.24-2.81-14.87-8.73-18.94,0,0,.24-.51,.24-.51h0Z"/>
        <path class="cls-1" d="M3.42,269.6c4.95,1.83,9.78,5.02,12.54,9.78,4.54,8.64,.35,17.98-8.43,21.61-.87,.32-1.72,.65-2.65,.85l-.35-.45c2.52-4.63,5.04-8.09,7.36-12.33,4.19-7.24-2.81-14.87-8.73-18.94,0,0,.24-.51,.24-.51h0Z"/>
        <path class="cls-1" d="M3.42,301.96c4.95,1.83,9.78,5.02,12.54,9.78,4.54,8.64,.36,17.98-8.43,21.61-.87,.32-1.72,.65-2.65,.85l-.35-.45c2.52-4.63,5.04-8.09,7.36-12.33,4.19-7.24-2.81-14.87-8.73-18.94,0,0,.24-.51,.24-.51h0Z"/>
      </g>
    </g>
  </g>
</svg>