<?xml version="1.0" encoding="UTF-8"?>
<svg id="Capa_2" data-name="Capa 2" xmlns="http://www.w3.org/2000/svg" viewBox="0 0 421.73 19.08">
  <defs>
    <style>
      .cls-1 {
        fill: #294023;
      }
    </style>
  </defs>
  <g id="Capa_1-2" data-name="Capa 1">
    <g>
      <g>
        <path class="cls-1" d="M0,18.84C1.83,13.89,5.02,9.05,9.78,6.29c8.64-4.54,17.98-.35,21.61,8.43,.32,.87,.65,1.72,.85,2.65l-.45,.35c-4.63-2.52-8.09-5.04-12.33-7.36C12.21,6.16,4.58,13.16,.51,19.08c0,0-.51-.24-.51-.24H0Z"/>
        <path class="cls-1" d="M31.08,18.84c1.83-4.95,5.02-9.78,9.78-12.54,8.64-4.54,17.98-.35,21.61,8.43,.32,.87,.65,1.72,.85,2.65l-.45,.35c-4.63-2.52-8.09-5.04-12.33-7.36-7.24-4.19-14.87,2.81-18.94,8.73,0,0-.51-.24-.51-.24h0Z"/>
        <path class="cls-1" d="M63.44,18.84c1.83-4.95,5.02-9.78,9.78-12.54,8.64-4.54,17.98-.35,21.61,8.43,.32,.87,.65,1.72,.85,2.65l-.45,.35c-4.63-2.52-8.09-5.04-12.33-7.36-7.24-4.19-14.87,2.81-18.94,8.73,0,0-.51-.24-.51-.24h0Z"/>
        <path class="cls-1" d="M90.08,17.57c1.83-4.95,5.02-9.78,9.78-12.54,8.64-4.54,17.98-.36,21.61,8.43,.32,.87,.65,1.72,.85,2.65l-.45,.35c-4.63-2.52-8.09-5.04-12.33-7.36-7.24-4.19-14.87,2.81-18.94,8.73,0,0-.51-.24-.51-.24h0Z"/>
      </g>
      <g>
        <path class="cls-1" d="M118.63,17.57c1.83-4.95,5.02-9.78,9.78-12.54,8.64-4.54,17.98-.36,21.61,8.43,.32,.87,.65,1.72,.85,2.65l-.45,.35c-4.63-2.52-8.09-5.04-12.33-7.36-7.24-4.19-14.87,2.81-18.94,8.73,0,0-.51-.24-.51-.24h0Z"/>
        <path class="cls-1" d="M149.71,17.57c1.83-4.95,5.02-9.78,9.78-12.54,8.64-4.54,17.98-.36,21.61,8.43,.32,.87,.65,1.72,.85,2.65l-.45,.35c-4.63-2.52-8.09-5.04-12.33-7.36-7.24-4.19-14.87,2.81-18.94,8.73,0,0-.51-.24-.51-.24h0Z"/>
        <path class="cls-1" d="M182.06,17.57c1.83-4.95,5.02-9.78,9.78-12.54,8.64-4.54,17.98-.36,21.61,8.43,.32,.87,.65,1.72,.85,2.65l-.45,.35c-4.63-2.52-8.09-5.04-12.33-7.36-7.24-4.19-14.87,2.81-18.94,8.73,0,0-.51-.24-.51-.24h0Z"/>
        <path class="cls-1" d="M208.7,16.3c1.83-4.95,5.02-9.78,9.78-12.54,8.64-4.54,17.98-.35,21.61,8.43,.32,.87,.65,1.72,.85,2.65l-.45,.35c-4.63-2.52-8.09-5.04-12.33-7.36-7.24-4.19-14.87,2.81-18.94,8.73,0,0-.51-.24-.51-.24h0Z"/>
      </g>
      <g>
        <path class="cls-1" d="M238.52,15.66c1.83-4.95,5.02-9.78,9.78-12.54,8.64-4.54,17.98-.36,21.61,8.43,.32,.87,.65,1.72,.85,2.65l-.45,.35c-4.63-2.52-8.09-5.04-12.33-7.36-7.24-4.19-14.87,2.81-18.94,8.73,0,0-.51-.24-.51-.24h0Z"/>
        <path class="cls-1" d="M269.6,15.66c1.83-4.95,5.02-9.78,9.78-12.54,8.64-4.54,17.98-.36,21.61,8.43,.32,.87,.65,1.72,.85,2.65l-.45,.35c-4.63-2.52-8.09-5.04-12.33-7.36-7.24-4.19-14.87,2.81-18.94,8.73,0,0-.51-.24-.51-.24h0Z"/>
        <path class="cls-1" d="M301.96,15.66c1.83-4.95,5.02-9.78,9.78-12.54,8.64-4.54,17.98-.36,21.61,8.43,.32,.87,.65,1.72,.85,2.65l-.45,.35c-4.63-2.52-8.09-5.04-12.33-7.36-7.24-4.19-14.87,2.81-18.94,8.73,0,0-.51-.24-.51-.24h0Z"/>
        <path class="cls-1" d="M328.6,14.4c1.83-4.95,5.02-9.78,9.78-12.54,8.64-4.54,17.98-.35,21.61,8.43,.32,.87,.65,1.72,.85,2.65l-.45,.35c-4.63-2.52-8.09-5.04-12.33-7.36-7.24-4.19-14.87,2.81-18.94,8.73,0,0-.51-.24-.51-.24h0Z"/>
      </g>
      <g>
        <path class="cls-1" d="M358.41,16.93c1.83-4.95,5.02-9.78,9.78-12.54,8.64-4.54,17.98-.35,21.61,8.43,.32,.87,.65,1.72,.85,2.65l-.45,.35c-4.63-2.52-8.09-5.04-12.33-7.36-7.24-4.19-14.87,2.81-18.94,8.73,0,0-.51-.24-.51-.24h0Z"/>
        <path class="cls-1" d="M389.5,16.93c1.83-4.95,5.02-9.78,9.78-12.54,8.64-4.54,17.98-.35,21.61,8.43,.32,.87,.65,1.72,.85,2.65l-.45,.35c-4.63-2.52-8.09-5.04-12.33-7.36-7.24-4.19-14.87,2.81-18.94,8.73,0,0-.51-.24-.51-.24h0Z"/>
      </g>
    </g>
  </g>
</svg>