<?xml version="1.0" encoding="UTF-8"?>
<svg id="Capa_2" data-name="Capa 2" xmlns="http://www.w3.org/2000/svg" viewBox="0 0 421.73 19.08">
  <defs>
    <style>
      .cls-1 {
        fill: #294023;
      }
    </style>
  </defs>
  <g id="Capa_1-2" data-name="Capa 1">
    <g>
      <g>
        <path class="cls-1" d="M421.73,.24c-1.83,4.95-5.02,9.78-9.78,12.54-8.64,4.54-17.98,.36-21.61-8.43-.32-.87-.65-1.72-.85-2.65l.45-.35c4.63,2.52,8.09,5.04,12.33,7.36C409.52,12.92,417.15,5.92,421.22,0c0,0,.51,.24,.51,.24h0Z"/>
        <path class="cls-1" d="M390.65,.24c-1.83,4.95-5.02,9.78-9.78,12.54-8.64,4.54-17.98,.36-21.61-8.43-.32-.87-.65-1.72-.85-2.65l.45-.35c4.63,2.52,8.09,5.04,12.33,7.36C378.44,12.92,386.07,5.92,390.14,0c0,0,.51,.24,.51,.24h0Z"/>
        <path class="cls-1" d="M358.3,.24c-1.83,4.95-5.02,9.78-9.78,12.54-8.64,4.54-17.98,.36-21.61-8.43-.32-.87-.65-1.72-.85-2.65l.45-.35c4.63,2.52,8.09,5.04,12.33,7.36C346.09,12.92,353.71,5.92,357.79,0c0,0,.51,.24,.51,.24h0Z"/>
        <path class="cls-1" d="M331.66,1.51c-1.83,4.95-5.02,9.78-9.78,12.54-8.64,4.54-17.98,.36-21.61-8.43-.32-.87-.65-1.72-.85-2.65l.45-.35c4.63,2.52,8.09,5.04,12.33,7.36,7.24,4.19,14.87-2.81,18.94-8.73,0,0,.51,.24,.51,.24h0Z"/>
      </g>
      <g>
        <path class="cls-1" d="M303.11,1.51c-1.83,4.95-5.02,9.78-9.78,12.54-8.64,4.54-17.98,.36-21.61-8.43-.32-.87-.65-1.72-.85-2.65l.45-.35c4.63,2.52,8.09,5.04,12.33,7.36,7.24,4.19,14.87-2.81,18.94-8.73,0,0,.51,.24,.51,.24h0Z"/>
        <path class="cls-1" d="M272.03,1.51c-1.83,4.95-5.02,9.78-9.78,12.54-8.64,4.54-17.98,.36-21.61-8.43-.32-.87-.65-1.72-.85-2.65l.45-.35c4.63,2.52,8.09,5.04,12.33,7.36,7.24,4.19,14.87-2.81,18.94-8.73,0,0,.51,.24,.51,.24h0Z"/>
        <path class="cls-1" d="M239.67,1.51c-1.83,4.95-5.02,9.78-9.78,12.54-8.64,4.54-17.98,.36-21.61-8.43-.32-.87-.65-1.72-.85-2.65l.45-.35c4.63,2.52,8.09,5.04,12.33,7.36,7.24,4.19,14.87-2.81,18.94-8.73,0,0,.51,.24,.51,.24h0Z"/>
        <path class="cls-1" d="M213.03,2.78c-1.83,4.95-5.02,9.78-9.78,12.54-8.64,4.54-17.98,.35-21.61-8.43-.32-.87-.65-1.72-.85-2.65l.45-.35c4.63,2.52,8.09,5.04,12.33,7.36,7.24,4.19,14.87-2.81,18.94-8.73,0,0,.51,.24,.51,.24h0Z"/>
      </g>
      <g>
        <path class="cls-1" d="M183.21,3.42c-1.83,4.95-5.02,9.78-9.78,12.54-8.64,4.54-17.98,.36-21.61-8.43-.32-.87-.65-1.72-.85-2.65l.45-.35c4.63,2.52,8.09,5.04,12.33,7.36,7.24,4.19,14.87-2.81,18.94-8.73,0,0,.51,.24,.51,.24h0Z"/>
        <path class="cls-1" d="M152.13,3.42c-1.83,4.95-5.02,9.78-9.78,12.54-8.64,4.54-17.98,.36-21.61-8.43-.32-.87-.65-1.72-.85-2.65l.45-.35c4.63,2.52,8.09,5.04,12.33,7.36,7.24,4.19,14.87-2.81,18.94-8.73,0,0,.51,.24,.51,.24h0Z"/>
        <path class="cls-1" d="M119.78,3.42c-1.83,4.95-5.02,9.78-9.78,12.54-8.64,4.54-17.98,.36-21.61-8.43-.32-.87-.65-1.72-.85-2.65l.45-.35c4.63,2.52,8.09,5.04,12.33,7.36,7.24,4.19,14.87-2.81,18.94-8.73,0,0,.51,.24,.51,.24h0Z"/>
        <path class="cls-1" d="M93.14,4.68c-1.83,4.95-5.02,9.78-9.78,12.54-8.64,4.54-17.98,.35-21.61-8.43-.32-.87-.65-1.72-.85-2.65l.45-.35c4.63,2.52,8.09,5.04,12.33,7.36,7.24,4.19,14.87-2.81,18.94-8.73,0,0,.51,.24,.51,.24h0Z"/>
      </g>
      <g>
        <path class="cls-1" d="M63.32,2.15c-1.83,4.95-5.02,9.78-9.78,12.54-8.64,4.54-17.98,.36-21.61-8.43-.32-.87-.65-1.72-.85-2.65l.45-.35c4.63,2.52,8.09,5.04,12.33,7.36,7.24,4.19,14.87-2.81,18.94-8.73,0,0,.51,.24,.51,.24h0Z"/>
        <path class="cls-1" d="M32.24,2.15c-1.83,4.95-5.02,9.78-9.78,12.54C13.82,19.23,4.48,15.05,.85,6.26c-.32-.87-.65-1.72-.85-2.65l.45-.35c4.63,2.52,8.09,5.04,12.33,7.36,7.24,4.19,14.87-2.81,18.94-8.73,0,0,.51,.24,.51,.24h0Z"/>
      </g>
    </g>
  </g>
</svg>