<?xml version="1.0" encoding="UTF-8"?>
<svg id="Capa_2" data-name="Capa 2" xmlns="http://www.w3.org/2000/svg" viewBox="0 0 26.01 32.74">
  <defs>
    <style>
      .cls-1 {
        stroke: #1d1e1b;
        stroke-miterlimit: 10;
        stroke-width: .75px;
      }

      .cls-1, .cls-2 {
        fill: #1d1d1b;
      }
    </style>
  </defs>
  <g id="Capa_1-2" data-name="Capa 1">
    <g id="pUmSS8.tif">
      <g>
        <path class="cls-2" d="M11.19,14.37c.25-.82,.47-1.65,.74-2.46,1.08-3.29,2.49-6.4,4.86-8.99,1.08-1.17,2.31-2.14,3.84-2.67,2.32-.8,4.45,.33,5.08,2.7,.55,2.11,.27,4.18-.33,6.22-1.36,4.63-3.65,8.84-6.15,12.93-1.82,2.96-3.78,5.83-5.71,8.72-.35,.53-.83,1-1.31,1.42-.74,.63-1.49,.69-2.18,.03-1-.96-1.97-1.98-2.8-3.09-2.15-2.86-4.11-5.86-5.49-9.19C.43,16.87-.18,13.6,.05,10.22c.12-1.8,.47-3.56,1.51-5.12,1.17-1.76,3.13-2.11,4.84-.86,1.48,1.08,2.25,2.67,3.01,4.26,.82,1.71,1.24,3.54,1.57,5.4,.03,.15,.07,.31,.11,.46,.04,0,.07,.01,.11,.02Zm-.72,16.68c.45-.65,.82-1.1,1.11-1.6,2.4-4.14,4.84-8.26,7.17-12.45,1.81-3.25,3.42-6.6,4.3-10.25,.34-1.42,.57-2.86,.16-4.32-.23-.82-.56-1.03-1.37-.83-1.39,.34-2.47,1.19-3.45,2.16-2.64,2.59-4.22,5.79-5.28,9.28-.5,1.64-.9,3.31-1.35,4.97-.11,.4-.27,.72-.77,.7-.51-.01-.78-.28-.89-.75-.23-.94-.46-1.88-.7-2.82-.66-2.48-1.31-4.97-2.54-7.24-.51-.95-1.24-1.78-1.89-2.65-.26-.34-.59-.33-.83,.06-.32,.51-.71,1-.91,1.56-1.16,3.28-.99,6.6-.11,9.91,1.08,4.04,2.91,7.74,5.17,11.24,.64,.99,1.38,1.92,2.18,3.03Z"/>
        <path class="cls-1" d="M10.47,31.06c-.8-1.1-1.54-2.03-2.18-3.03-2.27-3.49-4.1-7.2-5.17-11.24-.88-3.31-1.05-6.63,.11-9.91,.2-.56,.59-1.05,.91-1.56,.24-.39,.57-.4,.83-.06,.66,.86,1.38,1.7,1.89,2.65,1.23,2.27,1.89,4.76,2.54,7.24,.25,.94,.47,1.88,.7,2.82,.12,.47,.38,.73,.89,.75,.5,.01,.66-.31,.77-.7,.45-1.66,.85-3.33,1.35-4.97,1.06-3.48,2.65-6.69,5.28-9.28,.99-.97,2.07-1.81,3.45-2.16,.8-.2,1.14,.02,1.37,.83,.41,1.46,.19,2.9-.16,4.32-.88,3.65-2.5,7-4.3,10.25-2.32,4.18-4.76,8.3-7.17,12.45-.29,.5-.66,.96-1.11,1.6Z"/>
      </g>
    </g>
  </g>
</svg>