<?xml version="1.0" encoding="UTF-8"?>
<svg id="Capa_2" data-name="Capa 2" xmlns="http://www.w3.org/2000/svg" viewBox="0 0 470.83 134.26">
  <defs>
    <style>
      .cls-1 {
        fill: #181a33;
      }

      .cls-2 {
        fill: #585857;
      }
    </style>
  </defs>
  <g id="Capa_1-2" data-name="Capa 1">
    <g>
      <path class="cls-2" d="M.68,81.61c16.09,.07,32.19-.12,48.27-.72,15-.57,29.97-1.5,44.94-2.63,9.44-.71,18.87-1.5,28.3-2.3,.9-.08,.91-1.49,0-1.42-16.04,1.37-32.08,2.68-48.15,3.68-14.98,.93-29.97,1.54-44.97,1.81-9.46,.17-18.93,.21-28.39,.17-.91,0-.91,1.41,0,1.42H.68Z"/>
      <g>
        <path class="cls-2" d="M122.88,75.01c1.62,10.44,1.74,21.27,.33,32.02-.34,2.6-.82,5.33-2.38,7.49-.54,.75-1.29,1.45-2.14,1.46-.9,.01-1.6-.79-1.82-1.69-.22-.9-.06-1.89,.1-2.84,1.86-11.22,3.73-22.44,5.59-33.66"/>
        <g>
          <polygon class="cls-2" points="122.37 77.76 122.35 77.79 122.37 77.9 122.37 77.76"/>
          <path class="cls-2" d="M122.33,78.42s.02,0,.02-.03l-.02-.4c-.08,.16,.04,.32,0,.42Z"/>
          <path class="cls-2" d="M122.3,78.53c-.04,.15-.02,.21,0,.25-.02-.06,.06-.28,0-.25Z"/>
          <path class="cls-2" d="M120.14,91.67s0-.03,0-.05c0,.02,0,.04,0,.05Z"/>
          <path class="cls-2" d="M119.7,95.12l.03,.04c.05-.65,.23-1.36,.32-2.04v.05c.3-1.71,.51-3.3,.77-5.01v.07c0-.08,0-.18,.02-.27,.01-.02,.01,.03,0,.06,.11-.35,.14-1.06,.22-1.28,.01-.1,0-.15-.03-.1,.21-1.33,.44-2.76,.62-4.12,.02-.06,.03-.07,.05-.05,.11-1.17,.34-2.38,.56-3.57-.01-.05-.04,.12-.05,0-.09,.38-.06,.71-.16,1.05v-.05c-.07,.25,.03,.06-.04,.32-.03,.1-.02-.03-.03,.02-.08,.54-.19,1.09-.22,1.6-.07,.12-.1,.57-.17,.77,0,.14-.03,.28-.01,.34-.34,1.87-.61,3.79-.93,5.71-.06,.91-.35,1.97-.49,3.04,0,0,0,0,0,0-.04,.35-.11,.86-.19,1.27l-.02,.36c-.49,2.48-.86,5.04-1.31,7.57-.5,2.88-.98,5.39-1.33,8.21,0,0-.02,.02,0-.06-.13,.81-.25,1.54-.38,2.31h0c-.12,.94-.31,1.96-.08,2.95,.11,.49,.37,.96,.74,1.29,.36,.34,.88,.51,1.35,.42,.58-.08,1.08-.44,1.49-.87,.41-.43,.74-.95,1.05-1.47,.6-1.07,.98-2.25,1.24-3.41h.02c.4-1.86,.67-3.68,.87-5.57,.26-1.94,.28-4.01,.45-5.98,.16-1.21,.03-2.82,.15-3.97,.19-2.35,.08-4.64-.09-6.99-.04-2.17-.3-4.33-.41-6.43-.16-.98-.13-2.09-.3-3.19l-.02,.04c.02-.4-.21-.87-.14-1.13v.04c.03-.22-.18-.47-.14-.6l-.03-.03c-.04-.25,.02-.03,0-.23-.01-.07-.05-.02-.06-.18,.1-.05-.11-.61,0-.65,.02,.14,.01-.22,.08,.08,0-.09-.07-.51-.11-.47-.06-.03-.13-.19-.13,.08l.04,.05c-.02,.09,0,.07-.03,.1,.04,.34,0,.39,0,.63h0c.07,.16,.08,.39,.09,.52v.06c-.05,.09,.13,.37,.04,.28,.12,.68,.21,1.47,.31,2.23,.04,.1,.06,.59,.1,.41-.04,.2,0,.77,.03,.98,0,0-.01-.02-.02-.05-.04,.42,.13,.48,.07,.87,.08,.05,.04,.7,.14,.91-.01,.05-.02,.07-.04,.05,.07,.69,.09,1.46,.13,2.05,.1,.5,.05,1.22,.16,1.65,0,.36,0,.94,.05,1.44v-.05c.01,.56,.04,1.27,.11,1.66-.08,.17-.06,.41-.08,.66,.04,.38,.05,1.14,.09,1.71-.04,.09,.02,.48-.04,.5,.12,1.61,.03,3.61-.12,5.33v-.03c.02,.22,.07,.48,.1,.71,0,.02-.01,.02-.01-.03,0,.32-.07,.61-.08,.92t-.01-.05c.01,.3-.08,.61-.06,.96l-.02,.02v.22s-.04-.02-.03-.13c-.2,2.69-.39,5.48-.78,8.23v-.1s-.05,.54-.05,.54c0,0,0-.03,0-.06-.14,.67-.21,1.38-.38,2.02,0,0,0-.11-.03-.02-.07,.49-.26,.75-.23,1.01-.01,.02-.04,.03-.03-.02-.36,1.31-.97,2.62-1.87,3.65-.34,.45-.83,.87-1.42,.99-.6,.14-1.2-.16-1.59-.61h.02c-.53-.58-.66-1.44-.62-2.23,.05-.81,.23-1.6,.35-2.4,.1-.66,.17-1.11,.28-1.77h.03c.1-1.14,.47-2.34,.57-3.52l.02,.09c-.02-.19,.13-.7,.04-.65l.06-.2c.02-.81,.29-1.43,.38-2.41v.07c.04-.26,.07-.56,.12-.75,0,.03,0,.02,0,.08,.21-.79,.28-1.71,.42-2.56l.02,.1c.03-.42,.19-1.17,.26-1.71v.04s.03-.28,.03-.28h.04c.11-.71,.21-1.37,.31-2.06Z"/>
          <path class="cls-2" d="M120.84,88.01h0s0,.02,0,0Z"/>
          <path class="cls-2" d="M122.85,75.95s0-.06,0-.09c0,0,0,.06,0,.09Z"/>
        </g>
      </g>
      <path class="cls-2" d="M2.77,134.06c.81,.11,2.17,.46,2.87-.17,.42-.38,.35-.88,.86-1.21,.69-.45,1.63-.59,2.41-.79,1.01-.27,2.03-.53,3.05-.79,2.03-.52,4.07-1.02,6.11-1.5,8.08-1.92,16.23-3.59,24.43-4.96s16.63-2.45,25-3.14c7.88-.66,15.78-.75,23.67-1.17s16.35-1.55,23.68-5.33c.81-.42,.09-1.64-.72-1.22-6.64,3.42-14.07,4.57-21.44,5.04-7.75,.5-15.52,.52-23.27,1.11-16.15,1.23-32.17,3.84-47.96,7.43-4.48,1.02-8.95,2.11-13.4,3.29-1.1,.29-2.6,.61-3.21,1.7-.09,.15-.34,.62-.15,.51,.16-.09-.38-.05-.48-.05-.48-.01-.97-.09-1.45-.15-.9-.12-.89,1.3,0,1.42h0Z"/>
      <path class="cls-2" d="M65.39,98.7c-.82,3.88-2.12,7.64-3.9,11.18-.41,.81,.81,1.53,1.22,.72,1.84-3.65,3.2-7.52,4.04-11.52,.19-.89-1.18-1.27-1.37-.38h0Z"/>
      <path class="cls-2" d="M63.57,109.43c18.19-1.09,36.35-2.62,54.46-4.6,.9-.1,.91-1.52,0-1.42-18.11,1.98-36.27,3.51-54.46,4.6-.91,.05-.91,1.47,0,1.42h0Z"/>
      <path class="cls-2" d="M67.1,101.07c17.45-1.62,34.51-7.57,52.19-6.29,.91,.07,.91-1.35,0-1.42-17.69-1.28-34.74,4.67-52.19,6.29-.9,.08-.91,1.5,0,1.42h0Z"/>
      <path class="cls-2" d="M76.45,104.72l.37-.1c.18-.04,.35-.13,.48-.25,.15-.1,.28-.23,.37-.4,.1-.16,.16-.34,.17-.53,.04-.19,.03-.38-.03-.57l-.14-.34c-.13-.21-.3-.38-.51-.51l-.34-.14c-.25-.07-.5-.07-.75,0l-.37,.1c-.18,.04-.35,.13-.48,.25-.15,.1-.28,.23-.37,.4-.1,.16-.16,.34-.17,.53-.04,.19-.03,.38,.03,.57l.14,.34c.13,.21,.3,.38,.51,.51l.34,.14c.25,.07,.5,.07,.75,0h0Z"/>
      <path class="cls-2" d="M92.36,103.24l.6,.03c.2,0,.38-.03,.55-.12,.18-.06,.33-.15,.46-.29,.14-.13,.24-.28,.29-.46,.09-.17,.13-.35,.12-.55l-.05-.38c-.07-.24-.19-.45-.36-.63l-.29-.22c-.22-.13-.46-.19-.72-.19l-.6-.03c-.2,0-.38,.03-.55,.12-.18,.06-.33,.15-.46,.29-.14,.13-.24,.28-.29,.46-.09,.17-.13,.35-.12,.55l.05,.38c.07,.24,.19,.45,.36,.63l.29,.22c.22,.13,.46,.19,.72,.19h0Z"/>
      <path class="cls-2" d="M107.1,101.3l.23,.13c.16,.1,.34,.16,.53,.17,.19,.04,.38,.03,.57-.03,.18-.04,.35-.13,.48-.25,.15-.1,.28-.23,.37-.4l.14-.34c.07-.25,.07-.5,0-.75l-.14-.34c-.13-.21-.3-.38-.51-.51l-.23-.13c-.16-.1-.34-.16-.53-.17-.19-.04-.38-.03-.57,.03-.18,.04-.35,.13-.48,.25-.15,.1-.28,.23-.37,.4l-.14,.34c-.07,.25-.07,.5,0,.75l.14,.34c.13,.21,.3,.38,.51,.51h0Z"/>
      <path class="cls-2" d="M124.5,80.97c-.07,.03-.1,.05-.23,.02-.83-.15-2.52-.71-1.48-2.95,.02-.04,.13-.21,.2-.26,1.89-.9,4.02-1.56,6.16-1.77,1.08-.12,2.09-.12,3.12-.14h.78c.23,0,.64-.13,.48,.24l-.2,1.53c-.07,.51-.12,1.01-.21,1.54l-.18,1.21-.22,1.56c-.29,2.08-.55,4.16-.77,6.25-.45,4.18-.77,8.37-.95,12.56-.04,1.07-.12,2.2-.07,3.08,0,0-.01,.26,.01,.65,.02,.21,.02,.37,.11,.67,.07,.14,.11,.28,.22,.44,.13,.16,.26,.33,.39,.5,.27,.34,.55,.69,.84,1.06-.26,.2-.72,.45-1.1,.68-.39,.23-.78,.46-1.19,.7-.2,.11-.4,.23-.6,.35l-.37,.19c-.23,.12-.47,.24-.71,.37-.95,.49-1.93,.98-2.83,1.4-5.75,2.87-4.04,.82-.96-1.7-.12,.05,.52-.45,1.46-1.17,.48-.36,1.03-.78,1.6-1.21l.22-.16s.03-.03,.05-.05l.05-.07s.07-.08,.01-.12l-.09-.06s-.02,0-.04-.03c-.03-.05-.01,.02-.08-.17-.2-.53-.31-.99-.38-1.38-.13-.76-.14-1.2-.14-1.2-.01-1.07,.05-1.95,.08-2.91,.19-4.27,.51-8.53,.96-12.78,.23-2.12,.49-4.25,.78-6.36l.28-1.95h.01c-1.74,.18-3.39,.68-5.02,1.45Z"/>
      <path class="cls-2" d="M131.88,82.98l12.67-4.59c3.84-1.39,8-2.52,11.5-4.66s6.21-5.09,9.48-7.4,6.84-4.36,10.52-6.05c.83-.38,.11-1.6-.72-1.22-3.62,1.66-7.08,3.63-10.34,5.92s-5.99,5.17-9.28,7.29c-3.47,2.23-7.69,3.35-11.54,4.75l-12.67,4.59c-.85,.31-.48,1.68,.38,1.37h0Z"/>
      <path class="cls-2" d="M131.44,106.24c9.06-3.58,18.19-7.18,27.76-9.17s19.68-2.34,29.5-1.07c.9,.12,.89-1.3,0-1.42-9.78-1.26-19.74-.92-29.41,1.03s-19.02,5.63-28.23,9.27c-.84,.33-.47,1.7,.38,1.37h0Z"/>
      <path class="cls-2" d="M212.86,61.79c3.75-1.11,7.6-1.77,11.51-1.91,1.69-.06,3.61-.21,5.28,.14,.3,.06,.78,.16,.98,.42,.51,.69-.14,1.38-.58,1.79-.64,.61-1.49,1.08-2.28,1.47-2.99,1.47-6.42,1.79-9.66,2.38-3.79,.7-7.54,1.63-11.22,2.77-.87,.27-.5,1.64,.38,1.37,4.49-1.39,9.05-2.4,13.69-3.2,3.49-.6,8.1-1.32,10.51-4.23,.92-1.12,1.14-2.73-.18-3.65s-3.52-.72-5.07-.72c-4.64-.01-9.26,.68-13.71,1.99-.87,.26-.5,1.63,.38,1.37h0Z"/>
      <path class="cls-2" d="M223.04,67.07c3.08-.58,7.25-.65,10.04,1.04,.77,.47,1.76,1.63,.96,2.56-.45,.53-1.6,.64-2.23,.78-1.72,.39-3.46,.7-5.19,1.01-6.94,1.22-13.89,2.42-20.83,3.63-.9,.16-.52,1.52,.38,1.37,4.53-.79,9.05-1.58,13.58-2.36s8.66-1.37,12.91-2.38c1.35-.32,2.75-.78,3.03-2.32,.25-1.4-.58-2.67-1.72-3.4-3.12-2-7.81-1.93-11.3-1.28-.9,.17-.52,1.53,.38,1.37h0Z"/>
      <path class="cls-2" d="M219.96,75.17c1.9,0,3.78,.14,5.65,.51,1.53,.3,3.23,.63,4.51,1.56,.28,.2,.87,.7,.98,1.05,.19,.59-.21,.7-.66,.84-.8,.26-1.66,.41-2.48,.58-1.74,.37-3.49,.67-5.25,.92-7.04,1.03-14.18,1.48-21.03,3.53-.87,.26-.5,1.63,.38,1.37,8.42-2.51,17.27-2.6,25.83-4.36,1.3-.27,3.67-.38,4.52-1.62,.8-1.17-.32-2.55-1.2-3.27-1.33-1.09-3.1-1.54-4.75-1.89-2.13-.45-4.3-.66-6.48-.65-.91,0-.91,1.42,0,1.42h0Z"/>
      <path class="cls-2" d="M212.9,84.42c1.46,0,2.91,.11,4.35,.4,1.11,.22,2.84,.55,3.12,1.89s-1.97,1.88-2.92,2.19c-1.25,.41-2.53,.73-3.82,1.01-2.52,.55-5.07,.93-7.61,1.43-1.29,.25-2.58,.54-3.85,.89-.63,.18-1.26,.37-1.88,.59-.24,.08-1.48,.69-1.64,.62l.49,.87,.02-.09-.49,.49,.1-.04-.8-.33,.03,.06c.43,.81,1.65,.09,1.22-.72l-.03-.06c-.14-.26-.52-.43-.8-.33-.32,.11-.54,.27-.61,.62-.08,.41,.12,.71,.49,.87,.61,.26,1.27-.21,1.83-.42,.74-.27,1.49-.51,2.25-.73,1.65-.47,3.33-.82,5.01-1.13,3.44-.64,6.92-1.13,10.26-2.2,2.14-.68,5.44-2.01,3.74-4.84-.68-1.12-1.96-1.62-3.17-1.9-1.73-.41-3.52-.58-5.29-.57-.91,0-.91,1.42,0,1.42h0Z"/>
      <path class="cls-2" d="M143.08,85.61c7.46-2.12,15.01-4.02,22.27-6.77,6.73-2.55,13.3-5.59,20.26-7.48,3.55-.96,7.19-1.61,10.87-1.65,1.53-.02,3.83-.27,4.96,.95,1.24,1.33,.66,3.48-.36,4.74s-2.53,2.1-3.93,2.9c-1.56,.9-3.15,1.76-4.76,2.58-3.43,1.75-6.94,3.32-10.53,4.71-7.72,2.98-15.74,5.1-23.92,6.35-.9,.14-.52,1.5,.38,1.37,7.95-1.22,15.77-3.25,23.29-6.11,3.71-1.41,7.35-3.01,10.89-4.79,1.81-.91,3.6-1.87,5.36-2.88,1.4-.8,2.85-1.64,3.96-2.84,1.77-1.9,2.59-5.29,.39-7.24-1.25-1.11-3.08-1.11-4.65-1.14-1.94-.04-3.89,.1-5.81,.36-7.69,1.03-14.9,4.09-22.04,6.96-8.81,3.54-17.89,6.04-27.01,8.63-.88,.25-.5,1.62,.38,1.37h0Z"/>
      <path class="cls-2" d="M191,70.87c.51,.81,.97,1.79,1.69,2.43,.77,.69,1.76,.73,2.72,.53,2.13-.45,4.23-1.13,6.33-1.69,.88-.24,.51-1.6-.38-1.37-1.83,.49-3.66,.98-5.49,1.48-.66,.18-1.57,.53-2.18,.05-.27-.22-.46-.54-.64-.83-.28-.44-.55-.88-.83-1.32-.48-.77-1.71-.06-1.22,.72h0Z"/>
      <path class="cls-2" d="M162.31,31.38c8.71-1.29,17.49-2.1,26.29-2.44,4.31-.16,8.62-.22,12.94-.15s8.64,.13,12.9,.81c4.66,.74,9.14,2.27,13.3,4.5l.17-1.3c-8.68,2.54-17.64,3.8-26.63,4.59-4.42,.39-8.85,.68-13.28,.96-4.69,.3-9.14,.19-13.68-1.15-2.31-.68-4.55-1.55-6.78-2.45-1.96-.79-4.41-1.49-5.4-3.54-.4-.82-1.62-.1-1.22,.72,.73,1.51,2.11,2.41,3.6,3.09,1.93,.88,3.92,1.63,5.9,2.36,4.44,1.64,8.94,2.67,13.69,2.57s9.56-.53,14.32-.91,9.43-.84,14.12-1.52c5.31-.77,10.58-1.85,15.73-3.36,.56-.17,.72-1,.17-1.3-3.65-1.95-7.55-3.42-11.61-4.27s-8.4-1.07-12.62-1.18c-9.11-.24-18.23,.04-27.31,.82-5.01,.43-10,1.03-14.98,1.76-.9,.13-.52,1.5,.38,1.37h0Z"/>
      <path class="cls-2" d="M160.83,30.72c1.96,4.39,3.92,8.79,6.02,13.11s4.06,8.55,6.84,12.31c4.61,6.25,12.22,9.8,19.99,9.18l-.68-.52c.18,.53,.18,1.02,0,1.56-.29,.87,1.07,1.24,1.37,.38,.27-.8,.27-1.51,0-2.31-.09-.28-.36-.55-.68-.52-7.99,.64-15.42-3.26-19.77-9.93-2.37-3.63-4.27-7.61-6.15-11.51-1.98-4.12-3.84-8.29-5.7-12.46-.37-.83-1.59-.11-1.22,.72h0Z"/>
      <path class="cls-2" d="M227.49,34.62c.04,6.63-.9,13.94-5.4,19.15s-11.39,6.96-17.59,9.15c-1.92,.68-8.08,2.24-5.87,5.45,.51,.75,1.74,.04,1.22-.72-1.17-1.7,4.33-3.13,5.4-3.5,1.98-.69,3.97-1.34,5.93-2.06,3.64-1.34,7.23-2.97,10.16-5.55,6.19-5.44,7.62-14.08,7.57-21.92,0-.91-1.42-.91-1.42,0h0Z"/>
      <path class="cls-2" d="M191.77,82.62c.38,2.09-.85,4.19-1.35,6.17-.41,1.64-.65,3.32-.87,5-.48,3.68-.82,7.45-2.64,10.76-.44,.8,.78,1.52,1.22,.72,1.89-3.43,2.3-7.29,2.79-11.1,.26-2.05,.56-4.1,1.16-6.08s1.43-3.76,1.05-5.85c-.16-.9-1.53-.52-1.37,.38h0Z"/>
      <path class="cls-2" d="M188.35,98.57c-3.27,1.75-6.73,2.85-10.12,4.3-2.58,1.1-4.93,2.91-5.36,5.85-.4,2.79,1.4,4.72,4.03,5.31,3.55,.8,7.38,.99,11,1.21,7.41,.45,15.09,.14,22.23-2.04,2.79-.85,5.86-2.22,7.45-4.81s.44-5.49-1.97-7c-2.99-1.87-7.3-1.57-10.63-1.11-3.92,.54-7.68,1.89-11.07,3.92-.78,.47-.07,1.69,.72,1.22,5.03-3.02,11.35-4.71,17.23-3.83,2.82,.42,6.54,2.81,4.51,6.07-1.55,2.5-4.7,3.64-7.39,4.38-5.93,1.64-12.13,2.08-18.25,1.89-3.13-.1-6.25-.36-9.36-.72-2.4-.28-6.86-.19-7.12-3.45s3.05-5.09,5.68-6.06c3.13-1.17,6.2-2.34,9.15-3.92,.8-.43,.09-1.65-.72-1.22h0Z"/>
      <path class="cls-2" d="M200.04,78.4c.06,4.94-1.29,9.68-2.81,14.33-.73,2.25-1.5,4.48-2.17,6.75-.35,1.2-.68,2.41-.96,3.62-.17,.75-.61,1.76-.14,2.46,.17,.26,.49,.42,.8,.33,.36-.11,.54-.29,.64-.65,.09-.3-.06-.65-.33-.8l-.08-.04c-.79-.45-1.51,.77-.72,1.22l.08,.04-.33-.8-.04,.12,.49-.49-.11,.04,.8,.33c-.14-.21,.28-1.33,.34-1.59,.13-.57,.28-1.14,.43-1.71,.31-1.14,.65-2.27,1-3.39,.69-2.18,1.44-4.35,2.13-6.53,1.36-4.3,2.45-8.7,2.39-13.24-.01-.91-1.43-.91-1.42,0h0Z"/>
      <path class="cls-2" d="M210.76,21.31c.17,.05,.26,.1,.38,.22,.16,.15,.23,.25,.34,.42,.31,.47,.56,.96,.84,1.45,.6,1.06,1.21,2.12,1.81,3.19,.33,.59,1.37,.36,1.32-.36-.01-.23-.03-.45-.04-.68-.02-.38-.31-.71-.71-.71-.36,0-.73,.32-.71,.71,.01,.23,.03,.45,.04,.68l1.32-.36c-.66-1.16-1.31-2.31-1.97-3.47-.55-.96-1.08-2.14-2.25-2.45-.88-.24-1.26,1.13-.38,1.37h0Z"/>
      <path class="cls-2" d="M220.46,27.45c1.04-2.37,1.85-4.84,2.39-7.37,.19-.89-1.18-1.27-1.37-.38-.51,2.41-1.26,4.78-2.25,7.03-.15,.35-.1,.76,.25,.97,.3,.18,.81,.1,.97-.25h0Z"/>
      <path class="cls-2" d="M225.39,28.85c.29-.33,.6-.64,.93-.92,.08-.07,.17-.14,.25-.21,.1-.07-.07,.05,.03-.02,.05-.04,.1-.07,.15-.11,.18-.13,.36-.25,.55-.36,.78-.48,1.42-.75,2.3-.97,.36-.09,.61-.51,.49-.87s-.49-.59-.87-.49c-1.86,.47-3.57,1.51-4.84,2.96-.24,.28-.29,.73,0,1,.27,.25,.74,.3,1,0h0Z"/>
      <g>
        <path class="cls-2" d="M174.73,42.11c4.42,1.33,9.01,2.09,13.34,3.72,.88,.33,1.93,.96,1.78,1.89-.11,.7-.88,1.09-1.58,1.23-4.05,.84-7.67-2.52-11.65-3.62-.59-.16-1.24-.28-1.82-.07-.87,.3-1.38,1.26-1.44,2.18-.06,.92,.25,1.82,.57,2.69,1.15,3.18,2.57,6.47,5.31,8.44,1.49,1.07,3.27,1.66,5.05,2.13,3.47,.92,7.16,1.46,10.63,.56,3.93-1.01,7.16-3.71,10.25-6.34,3.9-3.32,7.82-6.65,11.16-10.53,.7-.82,1.4-2.01,.76-2.88-.51-.69-1.52-.66-2.37-.56-13.38,1.55-27.21,4.24-40.08,.25,0,0-.94,.59,.1,.91Z"/>
        <path class="cls-2" d="M174.54,42.79c2.59,.77,5.21,1.36,7.82,2.03,1.27,.33,2.53,.67,3.77,1.08,.58,.19,1.18,.37,1.74,.61,.13,.06,.57,.22,.72,.36,.48,.47,.44,1.01-.22,1.32-2.07,.96-5.06-.65-6.86-1.54s-3.94-2.21-6.01-2.22c-1.87,0-2.95,1.73-2.86,3.46,.1,2.13,1.3,4.52,2.26,6.4s2.23,3.65,3.97,4.88c1.99,1.41,4.46,2.07,6.81,2.59,4.95,1.09,9.75,.79,14.14-1.89s8-6.17,11.62-9.51c1.91-1.76,3.85-3.59,5.48-5.62,.98-1.21,1.8-3.27,.03-4.24-.68-.38-1.52-.34-2.26-.27-1.39,.13-2.78,.33-4.17,.51-2.71,.34-5.43,.7-8.15,1-5.99,.67-12.05,1.12-18.07,.59-3.08-.27-6.08-.86-9.06-1.69-.67-.19-1.21-.16-1.58,.53s.06,1.27,.69,1.54c.83,.35,1.55-.87,.72-1.22,.17,.07-.24,.43-.2,.52,.02,.05,.93,.26,.89,.25,.52,.14,1.04,.27,1.57,.4,1.19,.28,2.4,.51,3.61,.69,2.26,.34,4.53,.53,6.82,.6,4.73,.14,9.46-.22,14.16-.74,2.41-.27,4.81-.57,7.22-.88,1.08-.14,2.16-.28,3.25-.41,.95-.12,2.35-.55,3.3-.32,1.89,.46,.05,2.38-.62,3.12-.8,.89-1.64,1.76-2.5,2.61-1.66,1.64-3.4,3.2-5.17,4.73-3.32,2.87-6.69,6.17-10.8,7.88-4.52,1.88-9.9,1.05-14.37-.62s-6.4-5.62-7.79-9.82c-.37-1.11-.86-3.16,.72-3.57,1.07-.28,2.5,.47,3.47,.9,1.79,.81,3.5,1.81,5.38,2.44,1.64,.55,3.9,.91,5.48-.03,1.4-.84,1.3-2.46,.08-3.4-.87-.67-2.05-.97-3.07-1.3-1.24-.4-2.5-.75-3.77-1.08-2.61-.67-5.24-1.27-7.82-2.03-.88-.26-1.25,1.11-.38,1.37Z"/>
      </g>
      <g>
        <path class="cls-2" d="M155.29,27.42c-1.73,1.83-3.74,7.31-3.98,9.82-.04,.42-.04,.89,.24,1.2,.57,.62,1.64,.03,2.03-.72,.9-1.71,.29-3.78,.27-5.71-.01-1.6,.42-3.21,1.24-4.58,.05-.08,.13-.18,.22-.16s.03,.22-.04,.15"/>
        <path class="cls-2" d="M154.79,26.91c-1.02,1.09-1.69,2.5-2.28,3.86-.67,1.56-1.25,3.17-1.63,4.82-.3,1.3-.74,3.9,1.37,3.81s2.6-2.81,2.53-4.46c-.05-1.2-.27-2.4-.18-3.61,.04-.61,.16-1.21,.34-1.79,.09-.31,.2-.61,.33-.91,.05-.12,.11-.23,.17-.35,.04-.08,.31-.41,.08-.34l-.8-.33,.05,.06-.07-.55-.02,.08,.68-.52h-.06c-.91,.04-.91,1.45,0,1.42h.06c.31-.01,.6-.21,.68-.52,.07-.24,.06-.49-.1-.69-.19-.25-.47-.43-.8-.33-.83,.25-1.19,1.48-1.45,2.22-.32,.9-.49,1.87-.53,2.82-.07,1.78,.62,3.77-.07,5.48-.14,.34-1.02,1.43-1.09,.53-.04-.56,.13-1.18,.26-1.73,.33-1.42,.81-2.81,1.36-4.16s1.18-2.77,2.17-3.84c.62-.67-.38-1.67-1-1h0Z"/>
      </g>
      <g>
        <path class="cls-1" d="M163.78,25.89c-.19-2.53-1.7-4.92-3.91-6.17-.31,.73,.37,1.47,.98,1.97,.9,.74,1.96,1.17,2.86,1.91"/>
        <path class="cls-2" d="M164.49,25.89c-.23-2.8-1.82-5.38-4.26-6.78-.42-.24-.88,0-1.04,.42-.41,1.11,.48,2.12,1.29,2.76,.86,.68,1.88,1.13,2.74,1.81,.3,.24,.71,.29,1,0,.25-.25,.3-.76,0-1-.77-.62-1.63-1.06-2.44-1.61-.35-.24-.68-.5-.96-.82-.23-.26-.36-.49-.26-.77l-1.04,.42c1.99,1.15,3.37,3.28,3.55,5.56,.03,.38,.3,.71,.71,.71,.36,0,.74-.33,.71-.71h0Z"/>
      </g>
      <path class="cls-2" d="M466.51,.03c-9.62,2.69-19.29,5.19-28.94,7.74s-19.99,5.62-30.06,8.13c-5.82,1.45-11.7,2.7-17.64,3.54-.9,.13-.52,1.49,.38,1.37,10.46-1.47,20.66-4.24,30.81-7.08s19.35-5.23,29.04-7.79c5.61-1.48,11.21-2.98,16.79-4.54,.88-.25,.5-1.61-.38-1.37h0Z"/>
      <path class="cls-2" d="M389.44,20.08c7.23,9.08,12.64,19.5,15.95,30.62,.17,.58,.99,.71,1.3,.17,1.17-2.04,3.93-2.88,5.93-3.84,2.42-1.16,4.84-2.31,7.26-3.47,4.74-2.26,9.47-4.49,14.38-6.35,7.03-2.66,14.16-4.7,21.67-5.35,4.73-.41,9.48-.48,14.23-.56,.91-.02,.91-1.43,0-1.42-8.03,.14-16.14,.24-24,2.07-9.1,2.12-17.72,5.95-26.12,9.96-2.79,1.33-5.57,2.66-8.36,3.99-2.24,1.07-4.92,1.98-6.22,4.24l1.3,.17c-3.38-11.37-8.93-21.97-16.31-31.25-.57-.71-1.56,.3-1,1h0Z"/>
      <path class="cls-2" d="M392.05,23.06c-5.08,.32-9.92,1.98-14.6,3.92-2.66,1.1-5.09,2.68-7.6,4.06-2.97,1.62-5.97,3.18-9,4.68-6.09,3.01-12.34,6.09-18.79,8.26-3.25,1.1-6.57,1.31-9.97,1.42s-7.08,.18-10.58-.29c-7.48-1-14.31-4.45-20.96-7.81-.81-.41-1.53,.81-.72,1.22,5.85,2.96,11.8,5.97,18.24,7.41,3.33,.74,6.72,.98,10.13,.97s6.67-.03,9.94-.51,6.44-1.81,9.53-3.11,6.18-2.67,9.22-4.09c6.27-2.94,12.39-6.15,18.4-9.59,2.52-1.44,5.3-2.33,8.04-3.25,2.93-.98,5.63-1.68,8.72-1.88,.91-.06,.91-1.48,0-1.42h0Z"/>
      <path class="cls-2" d="M310.99,69.46c6.52,.11,13.09,.44,19.61,.26,3.07-.08,6.07-.5,8.99-1.46s5.69-2.24,8.5-3.42c11.58-4.85,23.3-9.49,35.42-12.83,6.83-1.88,13.78-3.33,20.83-4.15,.9-.1,.91-1.52,0-1.42-12.38,1.44-24.41,4.77-36.12,8.96-5.89,2.11-11.7,4.42-17.47,6.81s-11.53,5.45-17.83,5.97c-3.47,.29-6.98,.11-10.46,.05-3.82-.06-7.65-.13-11.47-.19-.91-.02-.91,1.4,0,1.42h0Z"/>
      <path class="cls-2" d="M366.14,33.71c.12-2.35-1.61-4-3.41-5.23-1.96-1.34-4.42-2.12-6.09,.09-3.01,3.98-1.69,9.67,.57,13.65,1.31,2.31,3,4.38,4.53,6.55,1.61,2.28,2.83,4.7,3.94,7.25,1.82,4.17,4.24,9.21,8.98,10.68,3.12,.97,4.09-2.45,4.61-4.83,.66-2.98,.58-6.04-.18-8.99-.45-1.77-3.19-1.02-2.73,.75,.5,1.94,.66,3.92,.44,5.91-.11,.96-.31,1.91-.59,2.84-.12,.4-.23,.87-.43,1.24-.27,.49-.36,.36-.88,.11-3.29-1.59-5-5.16-6.4-8.33-.79-1.79-1.53-3.59-2.5-5.29s-2.19-3.33-3.37-4.93c-2.19-2.98-4.52-6.18-4.85-10-.08-.98-.04-1.97,.21-2.92,.19-.73,.64-2.32,1.55-2.28,.81,.03,1.89,.99,2.5,1.5,.71,.6,1.31,1.26,1.26,2.23-.09,1.82,2.74,1.82,2.83,0h0Z"/>
      <path class="cls-2" d="M347.2,38.7c-.62-2.11-1.45-4.42-3.45-5.59-1.68-.99-4.1-.93-5.5,.52-1.7,1.76-.94,4.8-.57,6.93,.47,2.68,1.24,5.29,2.22,7.83,1.94,5.05,4.58,9.79,7.29,14.46,1.32,2.28,2.62,4.58,4.31,6.62,1.45,1.75,3.35,3.52,5.72,3.74,2.81,.26,4.85-1.66,5.08-4.4s-.85-5.5-2.61-7.62c-1.17-1.4-3.16,.61-2,2s1.82,3.2,1.8,5.03c0,.8-.12,1.65-.93,2.02-.71,.32-1.56,.12-2.21-.22-1.63-.83-2.89-2.52-3.9-4-1.1-1.61-2.05-3.32-3.03-5.01-3.92-6.78-7.81-13.83-9.07-21.67-.21-1.28-1.04-4.37,1.18-4.08,1.88,.24,2.49,2.66,2.93,4.16,.51,1.75,3.25,1,2.73-.75h0Z"/>
      <path class="cls-2" d="M268.86,50.89c-6.33,2.46-12.59,5.24-18.53,8.54-5.41,3.01-9.95,6.98-12.67,12.64-.39,.82,.83,1.54,1.22,.72,2.69-5.61,7.17-9.41,12.55-12.35,5.73-3.13,11.72-5.81,17.8-8.18,.84-.33,.48-1.7-.38-1.37h0Z"/>
      <path class="cls-2" d="M239.59,72.67c2.06-.99,3.52-2.84,3.99-5.08l-1.3,.17c1.55,2.77,4.8,4.01,7.87,3.69,3.86-.41,7.02-2.82,10.03-5.07,1.62-1.21,3.27-2.37,5.09-3.26,1.98-.96,4.1-1.6,6.21-2.19,4.3-1.2,8.62-2.32,12.92-3.48,.88-.24,.51-1.6-.38-1.37-3.87,1.04-7.74,2.08-11.61,3.13-3.62,.98-7.22,2.06-10.39,4.13s-5.87,4.75-9.4,6.06c-3.18,1.18-7.29,.9-9.11-2.36-.29-.51-1.17-.43-1.3,.17-.41,1.92-1.57,3.39-3.34,4.23-.82,.39-.1,1.62,.72,1.22h0Z"/>
      <path class="cls-2" d="M277.66,59.34c-3.43,9.37-15.86,11.85-18.31,21.91-.16,.64,.49,1.05,1.04,.8,2.96-1.36,4.83-4.4,4.78-7.65l-1.07,.61c3.62,2.23,8,.97,11.28-1.26,3.86-2.62,6.98-6.57,11.71-7.66,.89-.2,.51-1.57-.38-1.37-4.05,.93-7.02,3.84-10.15,6.37s-7.74,5.17-11.75,2.69c-.46-.28-1.07,.08-1.07,.61,.05,2.79-1.55,5.26-4.08,6.43l1.04,.8c1.22-5,5.4-8.32,9.25-11.36s7.39-6.02,9.05-10.55c.31-.86-1.05-1.23-1.37-.38h0Z"/>
      <path class="cls-2" d="M291.01,58.15c-3.43,5.79-6.91,11.54-10.96,16.93-3.78,5.03-7.8,9.95-10.29,15.79-.22,.51,.15,1.26,.8,1.04,3.1-1.06,5.2-3.9,5.28-7.18l-1.21,.5c1.59,1.91,4.28,2.37,6.58,1.65,2.63-.81,4.76-2.88,6.57-4.87,3.89-4.28,6.6-9.52,7.9-15.15,.2-.89-1.16-1.27-1.37-.38-1.12,4.85-3.31,9.43-6.47,13.29-1.52,1.85-3.27,3.76-5.35,4.98s-5.09,1.58-6.86-.53c-.41-.49-1.2-.07-1.21,.5-.06,2.63-1.75,4.96-4.24,5.81l.8,1.04c2.48-5.84,6.51-10.76,10.29-15.79,4.05-5.39,7.53-11.14,10.96-16.93,.47-.79-.76-1.5-1.22-.72h0Z"/>
      <path class="cls-2" d="M326.38,52.98c-6.05,.35-12.04,.13-18.07-.38-2.71-.23-5.28-.12-7.85,.81-1.19,.43-2.33,.96-3.45,1.54-.95,.49-2.38,.98-3.06,1.84-.42,.53-.4,1.18,.05,1.69,.83,.94,2.14,1.68,3.15,2.41,2.1,1.54,4.3,2.96,6.7,3.98,4.96,2.1,10.53,1.98,15.8,1.52,6.31-.55,12.51-1.95,18.45-4.13,.85-.31,.48-1.68-.38-1.37-4.64,1.71-9.45,2.95-14.35,3.65s-10.25,1.17-15.16,.19-8.68-3.75-12.44-6.64c-.33-.26-.56-.25-.42-.63,.03-.09,.78-.43,.79-.44,.46-.25,.92-.51,1.39-.75,1.21-.63,2.44-1.22,3.73-1.65,2.48-.83,4.95-.8,7.52-.57,5.86,.53,11.72,.68,17.6,.34,.91-.05,.91-1.47,0-1.42h0Z"/>
      <path class="cls-2" d="M294.43,49.19c1.67,1.49,3,3.36,3.79,5.45,.14,.36,.48,.6,.87,.49,.34-.09,.63-.51,.49-.87-.88-2.33-2.29-4.42-4.16-6.08-.29-.25-.72-.28-1,0-.26,.26-.29,.75,0,1h0Z"/>
      <path class="cls-2" d="M307.25,66.15c.4,1.5,1,2.94,1.81,4.27,.88,1.43,2.02,2.61,3.13,3.86s1.94,2.73,2.65,4.26c.35,.75,.67,1.51,1,2.26,.3,.69,.46,1.42,1.21,1.7,.23,.09,.52-.02,.69-.18,.37-.37,.3-.83,0-1.21-.21-.25-.6-.25-.86-.11l-.06,.03c-.81,.42-.09,1.64,.72,1.22l.06-.03-.86-.11-.12-.16,.18-.69-.06,.06,.69-.18-.18-.07,.42,.33c-.79-1.23-1.21-2.75-1.84-4.07s-1.46-2.67-2.46-3.84-2.11-2.24-2.95-3.56-1.42-2.68-1.81-4.15c-.24-.88-1.6-.51-1.37,.38h0Z"/>
      <path class="cls-2" d="M313.28,74.31c3.61-1.18,7.35-1.86,11.16-1.92,2.7-.05,6.89-.29,8.98,1.83,2.33,2.36-.42,6.53-2.07,8.52-1.87,2.24-4.21,4.05-6.52,5.8-2.54,1.93-4.96,3.96-7.42,5.98-2.62,2.15-5.4,4.08-8.67,5.08-3.08,.94-6.4,1.13-9.56,.54-1.52-.28-3.01-.72-4.42-1.35-1.29-.57-3.38-1.43-3.84-2.92-.5-1.58,1.3-3.7,2.17-4.91,1.02-1.42,2.2-2.73,3.48-3.93,2.67-2.48,5.82-4.39,9.24-5.62,.85-.31,.48-1.68-.38-1.37-6.42,2.31-12.69,7.18-15.59,13.51-1.57,3.43,1.86,5.46,4.57,6.62,3.31,1.42,7,1.97,10.59,1.6s7.14-1.69,10.2-3.8c3.22-2.21,6.05-4.94,9.15-7.3,2.71-2.06,5.53-4.07,7.77-6.66,1.91-2.21,4.23-5.7,3.45-8.79-.89-3.56-5.33-4.03-8.35-4.2-4.84-.27-9.7,.41-14.31,1.92-.86,.28-.49,1.65,.38,1.37h0Z"/>
      <path class="cls-2" d="M287.1,52.01c2.96,5.91,6.51,11.5,10.61,16.69s10.66,10.55,9.37,17.74c-.16,.89,1.21,1.27,1.37,.38,1.27-7.12-4.2-12.39-8.33-17.38-4.62-5.57-8.56-11.68-11.79-18.14-.41-.82-1.63-.1-1.22,.72h0Z"/>
      <path class="cls-2" d="M245.59,35.93c.69-3.3,3.84-5.66,6.22-7.8,2.7-2.43,5.49-4.75,8.28-7.06s5.77-4.76,8.66-7.15,5.58-4.64,8.69-6.51c2.77-1.68,6.84-3.68,10.02-1.85,3.66,2.1-1.52,6.69-3.22,8.36-4.82,4.72-10.52,8.44-16.12,12.14-3.42,2.26-6.88,4.26-10.79,5.54s-7.79,2.28-11.68,3.4c-.88,.25-.5,1.62,.38,1.37,3.89-1.11,7.83-2.13,11.68-3.4s7.22-3.12,10.56-5.3c6.26-4.1,12.66-8.26,17.9-13.65,1.82-1.88,5.05-4.93,3.75-7.87s-5.81-2.96-8.48-2.15c-3.53,1.08-6.66,3.37-9.55,5.6-3.29,2.55-6.45,5.26-9.66,7.91-3.54,2.92-7.1,5.81-10.53,8.85-2.83,2.51-6.64,5.3-7.46,9.21-.19,.89,1.18,1.27,1.37,.38h0Z"/>
      <path class="cls-2" d="M287.63,12.7c4.43,3.6,7.94,8.22,10.17,13.48,1.12,2.64,1.93,5.44,2.34,8.27,.23,1.62,.27,3.24-.18,4.83s-1.15,3.01-1.86,4.43c-1.37,2.77-3.12,5.07-6.09,6.21s-6.43,1.48-9.68,1.37-6.77-.72-10.09-1.47-6.43-1.44-9.53-2.47c-6.75-2.24-11.52-7.49-16.27-12.51-.63-.66-1.63,.34-1,1,4.36,4.6,8.78,9.53,14.73,12.06,3.42,1.45,7.16,2.23,10.77,3.07s6.93,1.48,10.46,1.68,7.23-.06,10.6-1.24c2.79-.98,4.89-2.74,6.4-5.27s3.14-5.77,3.32-8.82-.66-6.22-1.61-9.05c-2.17-6.48-6.17-12.28-11.48-16.6-.7-.57-1.71,.43-1,1h0Z"/>
      <g>
        <path class="cls-2" d="M258.28,35.42c7.87,.41,15.85-2.48,21.64-7.82,2.78-2.56,5.13-5.7,8.47-7.46,.32-.17,.67-.33,1.04-.3,.44,.04,.8,.36,1.1,.69,2.3,2.61,2.01,6.55,1.38,9.96-.77,4.15-2.04,8.54-5.33,11.18-2.66,2.14-6.22,2.76-9.63,2.97-4.14,.25-8.37-.02-12.26-1.45s-7.42-4.13-9.28-7.84c1.01-.28,2.02-.56,3.03-.84"/>
        <path class="cls-2" d="M258.28,36.13c5.83,.26,11.69-1.16,16.76-4.08,2.47-1.43,4.69-3.2,6.7-5.23,1-1.01,1.97-2.06,3-3.04s2.28-2.25,3.66-2.84c3.28-1.41,3.33,5.48,3.14,7.3-.3,2.83-.95,5.8-2.11,8.4-1.26,2.81-3.3,5.01-6.21,6.12s-6.33,1.3-9.49,1.26c-6.91-.1-14.32-2.51-17.7-9.02l-.42,1.04c1.01-.28,2.02-.56,3.03-.84,.88-.24,.51-1.61-.38-1.37-1.01,.28-2.02,.56-3.03,.84-.46,.13-.63,.64-.42,1.04,3.05,5.87,9.36,8.81,15.7,9.53s14.42,.37,18.53-5.1c1.9-2.52,2.81-5.64,3.42-8.69,.56-2.78,1.02-5.81,.15-8.58-.37-1.19-1.03-2.52-2.06-3.29-1.21-.89-2.44-.15-3.54,.56-2.79,1.8-4.88,4.43-7.28,6.69-5.73,5.42-13.58,8.24-21.44,7.89-.91-.04-.91,1.38,0,1.42h0Z"/>
      </g>
      <path class="cls-2" d="M238.16,33.87c-.18-.07-.36-.09-.54-.11-.13-.02-.27-.02-.4,0-.37,.04-.73,.14-1.05,.34-.15,.1-.28,.25-.33,.42s-.03,.4,.07,.55,.24,.28,.42,.33,.38,.03,.55-.07c.07-.05,.15-.09,.23-.12l-.17,.07c.14-.06,.28-.1,.43-.12l-.19,.03c.15-.02,.3-.02,.45,0l-.19-.03c.12,.02,.23,.05,.34,.09,.16,.06,.4,.01,.55-.07s.29-.25,.33-.42c.04-.18,.03-.39-.07-.55s-.24-.26-.42-.33h0Z"/>
      <path class="cls-2" d="M240.62,39.08c-.23,.37-.47,.73-.73,1.08-.07,.09-.14,.19-.21,.28s.05-.07-.02,.02c-.04,.05-.07,.09-.11,.14-.14,.17-.28,.35-.43,.51-.57,.67-1.2,1.29-1.87,1.86-.28,.24-.27,.76,0,1,.3,.28,.7,.26,1,0,1.4-1.2,2.61-2.62,3.58-4.18,.2-.32,.08-.79-.25-.97s-.76-.08-.97,.25h0Z"/>
      <path class="cls-2" d="M246.08,43.77c-.7,2.17-1.11,4.42-1.25,6.69-.02,.38,.34,.71,.71,.71,.4,0,.69-.33,.71-.71,.13-2.15,.54-4.27,1.2-6.32,.28-.87-1.09-1.24-1.37-.38h0Z"/>
      <g>
        <path class="cls-2" d="M252.07,32.13c-1.44-2.26-3.65-4.05-6.21-4.84s-5.46-.52-7.75,.88c-.72,.44-1.45,1.14-1.34,1.98,.06,.49,.41,.9,.82,1.19,1.05,.74,2.45,.74,3.72,.54,1.13-.18,2.24-.5,3.29-.96,1.01-.44,1.98-1,3.06-1.21,2.13-.43,4.27,.54,6.16,1.61-.49,.25-.92,.62-1.23,1.08-.32-.64-.8-1.2-1.38-1.63"/>
        <path class="cls-2" d="M252.68,31.77c-2.75-4.21-7.9-6.75-12.88-5.15-1.84,.59-5.13,2.51-3.17,4.79,1.74,2.01,5.13,1.29,7.29,.53,1.57-.55,3.04-1.62,4.76-1.63s3.32,.8,4.78,1.62v-1.22c-.61,.34-1.07,.78-1.49,1.34h1.22c-.38-.69-.87-1.28-1.49-1.77-.71-.56-1.72,.44-1,1,.54,.42,.94,.88,1.27,1.48,.28,.51,.92,.4,1.22,0,.27-.36,.59-.61,.98-.83,.46-.26,.46-.97,0-1.22-2.56-1.44-5.26-2.41-8.12-1.22-1.44,.6-2.78,1.28-4.32,1.59-1.08,.22-3.66,.58-4.21-.83-.51-1.33,2.49-2.24,3.31-2.44,1.4-.34,2.89-.33,4.29,.02,2.63,.65,4.85,2.41,6.32,4.66,.5,.76,1.72,.05,1.22-.72h0Z"/>
      </g>
      <g>
        <path class="cls-2" d="M247.67,23.05c-.62-1.71-1.46-3.34-2.49-4.84-.37-.54-.79-1.09-1.4-1.35s-1.42-.13-1.73,.45c-.27,.51-.04,1.18,.37,1.59s.96,.65,1.48,.92c1.46,.76,2.75,1.86,3.72,3.19,.12,.16,.24,.33,.43,.38s.43-.11,.38-.3"/>
        <path class="cls-2" d="M248.35,22.86c-.55-1.5-1.25-2.96-2.11-4.31-.76-1.2-1.75-2.7-3.37-2.5-.71,.09-1.33,.51-1.56,1.21-.25,.74,.06,1.56,.57,2.11s1.24,.83,1.89,1.19,1.21,.74,1.75,1.21c.58,.5,1.09,1.06,1.55,1.67,.28,.38,.63,.68,1.13,.65s1-.48,.94-1.01c-.04-.38-.3-.71-.71-.71-.35,0-.75,.33-.71,.71l.4-.4,.19,.05s-.07-.07-.08-.09c-.06-.13-.19-.25-.27-.36-.18-.23-.36-.45-.55-.66-.37-.41-.78-.79-1.21-1.14-.47-.38-.95-.72-1.47-1.03-.49-.28-1.01-.5-1.48-.81-.28-.18-.65-.53-.6-.9,.04-.29,.33-.35,.62-.32,.09,0,.3,.08,.44,.17,.21,.13,.38,.32,.54,.51,.36,.42,.65,.91,.94,1.39,.72,1.18,1.33,2.42,1.81,3.72,.13,.36,.48,.6,.87,.49,.35-.1,.63-.51,.49-.87h0Z"/>
      </g>
    </g>
  </g>
</svg>