<?xml version="1.0" encoding="UTF-8"?>
<svg id="Capa_2" data-name="Capa 2" xmlns="http://www.w3.org/2000/svg" viewBox="0 0 240.87 148.52">
  <defs>
    <style>
      .cls-1 {
        fill: #294023;
      }
    </style>
  </defs>
  <g id="Capa_1-2" data-name="Capa 1">
    <g>
      <path class="cls-1" d="M0,16.9C.83,11.47,4.18,6.22,9.18,3.51,18.69-1.63,28.9,6.41,31.76,15.48c-3.02-1.95-5.69-3.99-8.45-5.49-9.55-5.81-16.21,.08-23.31,6.9H0Z"/>
      <path class="cls-1" d="M31.08,16.9c.83-5.43,4.18-10.68,9.18-13.39,9.51-5.13,19.71,2.9,22.57,11.97-3.02-1.95-5.69-3.99-8.45-5.49-9.55-5.81-16.21,.08-23.31,6.9h0Z"/>
      <path class="cls-1" d="M63.44,16.9c.83-5.43,4.18-10.68,9.18-13.39,9.51-5.13,19.71,2.9,22.57,11.97-3.02-1.95-5.69-3.99-8.45-5.49-9.55-5.81-16.21,.08-23.31,6.9h0Z"/>
      <path class="cls-1" d="M90.08,15.63c.83-5.43,4.18-10.68,9.18-13.39,9.51-5.13,19.71,2.9,22.57,11.97-3.02-1.95-5.69-3.99-8.45-5.49-9.55-5.81-16.21,.08-23.31,6.9h0Z"/>
    </g>
    <g>
      <path class="cls-1" d="M19.37,148.52c-5.43-.83-10.68-4.18-13.39-9.18-5.13-9.51,2.9-19.71,11.97-22.57-1.95,3.02-3.99,5.69-5.49,8.45-5.81,9.55,.08,16.21,6.9,23.31h0Z"/>
      <path class="cls-1" d="M19.37,117.43c-5.43-.83-10.68-4.18-13.39-9.18-5.13-9.51,2.9-19.71,11.97-22.57-1.95,3.02-3.99,5.69-5.49,8.45-5.81,9.55,.08,16.21,6.9,23.31h0Z"/>
      <path class="cls-1" d="M19.37,85.08c-5.43-.83-10.68-4.18-13.39-9.18-5.13-9.51,2.9-19.71,11.97-22.57-1.95,3.02-3.99,5.69-5.49,8.45-5.81,9.55,.08,16.21,6.9,23.31h0Z"/>
      <path class="cls-1" d="M18.11,58.44c-5.43-.83-10.68-4.18-13.39-9.18C-.42,39.74,7.62,29.54,16.69,26.68c-1.95,3.02-3.99,5.69-5.49,8.45-5.81,9.55,.08,16.21,6.9,23.31h0Z"/>
    </g>
    <g>
      <path class="cls-1" d="M119.03,16.26c.83-5.43,4.18-10.68,9.18-13.39,9.51-5.13,19.71,2.9,22.57,11.97-3.02-1.95-5.69-3.99-8.45-5.49-9.55-5.81-16.21,.08-23.31,6.9h0Z"/>
      <path class="cls-1" d="M150.11,16.26c.83-5.43,4.18-10.68,9.18-13.39,9.51-5.13,19.71,2.9,22.57,11.97-3.02-1.95-5.69-3.99-8.45-5.49-9.55-5.81-16.21,.08-23.31,6.9h0Z"/>
      <path class="cls-1" d="M182.47,16.26c.83-5.43,4.18-10.68,9.18-13.39,9.51-5.13,19.71,2.9,22.57,11.97-3.02-1.95-5.69-3.99-8.45-5.49-9.55-5.81-16.21,.08-23.31,6.9h0Z"/>
      <path class="cls-1" d="M209.11,14.99c.83-5.43,4.18-10.68,9.18-13.39,9.51-5.13,19.71,2.9,22.57,11.97-3.02-1.95-5.69-3.99-8.45-5.49-9.55-5.81-16.21,.08-23.31,6.9h0Z"/>
    </g>
  </g>
</svg>